<?xml version="1.0" encoding="UTF-8"?>
<!DOCTYPE svg PUBLIC "-//W3C//DTD SVG 1.1//EN" "http://www.w3.org/Graphics/SVG/1.1/DTD/svg11.dtd">
<!-- Creator: CorelDRAW 2020 (64-Bit) -->
<svg xmlns="http://www.w3.org/2000/svg" xml:space="preserve" width="196.797mm" height="242.705mm" version="1.1" style="shape-rendering:geometricPrecision; text-rendering:geometricPrecision; image-rendering:optimizeQuality; fill-rule:evenodd; clip-rule:evenodd"
viewBox="0 0 4887.1 6027.16"
 xmlns:xlink="http://www.w3.org/1999/xlink"
 xmlns:xodm="http://www.corel.com/coreldraw/odm/2003">
 <defs>
  <style type="text/css">
   <![CDATA[
    .fil1 {fill:black;fill-rule:nonzero}
    .fil0 {fill:white;fill-rule:nonzero}
   ]]>
  </style>
 </defs>
 <g id="Слой_x0020_1">
  <metadata id="CorelCorpID_0Corel-Layer"/>
  <path class="fil0" d="M1654.98 2999.57c37.09,-55.51 118.48,-135.14 166.28,-165.61 176.98,134.41 297.2,246.91 537.64,399.68 209.78,-299.96 613.59,-788.71 1264.76,-1241.18 131.07,0 139.22,0 238.98,0 -541.6,443.1 -1202.82,1462.85 -1486.25,2013.85 -241.92,-341.29 -482.54,-690.46 -721.41,-1006.75z"/>
  <path class="fil1" d="M1629.58 2982.56c19.33,-28.93 49.53,-63.58 81.09,-95.01 32.87,-32.74 67.87,-62.58 94.17,-79.34l17.92 -11.42 16.94 12.86c55.42,42.09 101.57,78.95 147.35,115.51 105.64,84.37 209.33,167.18 363.78,266.94 105.01,-147.85 254.13,-336.98 452.89,-543.05 209.9,-217.63 475.2,-454.34 802.45,-681.74l7.93 -5.51 334.41 0 -66.46 54.38c-234.01,191.45 -490.96,492.04 -729.81,815.67 -310.06,420.13 -589.3,878.68 -748.66,1188.48l-23.02 44.74 -29.08 -41.03c-63.77,-89.96 -119.8,-169.56 -175.76,-249.04 -182.57,-259.33 -364.33,-517.53 -545.18,-756.99l-13.08 -17.31 12.12 -18.14zm124.2 -51.65c-22.65,22.55 -44.32,46.6 -60.83,68.18 176.66,234.76 354.36,487.18 532.83,740.7 50.24,71.37 100.54,142.83 146.61,207.97 163.56,-310.4 433.05,-748.97 730.73,-1152.33 220.23,-298.41 456.05,-577.76 676.25,-772.31l-146.14 0c-320.27,223.38 -579.91,455.22 -785.45,668.32 -207.42,215.06 -359.78,410.86 -463.86,559.69l-16.81 24.03 -24.63 -15.65c-170.45,-108.31 -280.89,-196.51 -393.52,-286.45 -42.45,-33.9 -85.22,-68.06 -128.48,-101.29 -19.92,15.06 -43.62,36.15 -66.69,59.14z"/>
  <path class="fil0" d="M4856.34 4086.64c-0.5,95.48 -20.1,180.47 -52.09,258.23 -46.4,112.82 -115.02,198.29 -186.51,277.22 -78,86.09 -171.6,152.72 -279.32,211.15 -93.26,50.59 -201.23,96.98 -320.71,146.78 -135.55,56.48 -400.88,131.79 -723.07,186.64 4.66,211.02 -25.16,358.15 -218.84,563.03 -84.41,89.3 -182.27,155.04 -287.68,198.95 -110.19,45.91 -227.28,67.85 -344.65,67.85 -117.37,0 -234.47,-21.95 -344.65,-67.85 -105.41,-43.91 -203.27,-109.65 -287.68,-198.95 -193.67,-204.88 -223.5,-352.01 -218.84,-563.03 -322.18,-54.86 -587.51,-130.16 -723.07,-186.64 -119.49,-49.79 -227.44,-96.18 -320.71,-146.78 -107.72,-58.44 -201.32,-125.06 -279.32,-211.15 -71.51,-78.94 -140.11,-164.41 -186.51,-277.22 -50.46,-122.67 -70.14,-263.31 -32.54,-434.76 40.22,-183.42 160.49,-309.5 316.12,-472.63 122.75,-128.67 273.95,-287.17 403.26,-507.26 114.65,-195.14 206.53,-371.87 266.86,-591.44 62.06,-225.81 94.74,-505.69 90.88,-908.5l-0.05 -13.03 -0.96 -0.96c0,-376.08 142.37,-721.74 374.28,-975.27 190.84,-208.61 442.23,-354.54 725.71,-404.5l0 504.12c-139.58,41.9 -264.22,123.18 -363.53,231.74 -150.73,164.78 -243.27,392.82 -243.27,643.91l-0.96 0 0.04 10.14c4.34,451.51 -34.56,773.42 -108.21,1041.43 -75.36,274.25 -183.33,483.43 -316.96,710.88 -159.69,271.79 -331.34,451.72 -470.69,597.8 -101.65,106.56 -180.22,188.92 -190.89,237.59 -13.77,62.81 -9.06,108.26 5.58,143.86 18.69,45.44 55.93,90.48 95.95,134.65 33.51,36.99 85.15,71.81 150.25,107.13 79.53,43.15 172.03,82.89 274.47,125.57 113.58,47.33 349.2,112.54 644.33,161.02 223.37,36.69 479.56,62.8 741.11,62.8 261.55,0 517.74,-26.11 741.11,-62.8 295.14,-48.48 530.75,-113.69 644.33,-161.02 102.43,-42.69 194.94,-82.43 274.47,-125.57 65.1,-35.32 116.74,-70.14 150.25,-107.13 40.01,-44.17 77.26,-89.22 95.95,-134.65 8.3,-20.17 13.4,-43.5 13.76,-71.36l493 0zm-2059.26 1141.71c-116.18,8.93 -234.85,14.02 -353.61,14.02 -118.76,0 -237.43,-5.1 -353.61,-14.02 7.98,60.97 29.67,111.39 79.6,164.21 34.37,36.36 74.58,63.28 118.15,81.43 47.63,19.84 100.69,29.33 155.86,29.33 55.17,0 108.23,-9.49 155.86,-29.33 43.57,-18.15 83.79,-45.08 118.15,-81.43 49.93,-52.82 71.63,-103.24 79.6,-164.21z"/>
  <path class="fil1" d="M4886.88 4086.75c-0.26,50.03 -5.5,97.17 -14.83,141.87 -9.35,44.74 -22.82,87.23 -39.53,127.86 -24.2,58.86 -54.05,110.36 -87.08,157.31 -32.47,46.17 -68.37,88.27 -105.06,128.78 -40.49,44.69 -84.86,84.2 -132.95,120.02 -48.17,35.88 -99.66,67.91 -154.4,97.6 -46.95,25.47 -97.99,50.06 -152.56,74.65 -53.8,24.24 -110.96,48.42 -171.03,73.45 -73.27,30.53 -184.04,66.5 -321.08,101.88 -112.42,29.02 -242.15,57.55 -382.78,82.21 0.75,97.69 -7.25,182.87 -37.12,268.17 -32.52,92.88 -90.43,184.37 -190.38,290.11 -42.99,45.48 -89.42,85.11 -138.54,119.08 -50.78,35.12 -104.27,64.1 -159.68,87.18 -56.41,23.5 -114.52,40.94 -173.47,52.54 -60.41,11.89 -121.68,17.71 -182.92,17.71 -61.23,0 -122.5,-5.82 -182.91,-17.71 -58.96,-11.61 -117.07,-29.04 -173.48,-52.54 -55.41,-23.08 -108.91,-52.07 -159.68,-87.18 -49.12,-33.97 -95.55,-73.6 -138.54,-119.08 -99.96,-105.74 -157.86,-197.23 -190.38,-290.11 -29.87,-85.3 -37.87,-170.49 -37.12,-268.17 -140.63,-24.65 -270.36,-53.19 -382.78,-82.21 -137.04,-35.38 -247.82,-71.35 -321.08,-101.88 -60.07,-25.03 -117.23,-49.2 -171.03,-73.44 -54.56,-24.58 -105.6,-49.17 -152.56,-74.65 -54.74,-29.7 -106.23,-61.73 -154.4,-97.6 -48.09,-35.82 -92.46,-75.33 -132.94,-120.02 -36.7,-40.51 -72.59,-82.61 -105.07,-128.78 -33.02,-46.95 -62.87,-98.46 -87.07,-157.3 -26.32,-63.99 -44.63,-132.74 -51.45,-207.95 -6.81,-75.1 -2.22,-156.21 17.23,-244.9 21.1,-96.24 63.06,-177.23 120.06,-255.43 56.03,-76.87 125.49,-149.69 203.85,-231.82 61.3,-64.26 129.71,-135.97 197.85,-217.79 68.35,-82.07 137.5,-175.39 201.21,-283.84 56.92,-96.88 108.14,-189.09 152.48,-284.05 44.16,-94.55 81.61,-192.05 111.27,-299.97 30.56,-111.21 53.92,-236.02 69.2,-382.96 15.35,-147.67 22.52,-317.25 20.6,-517.27l0 -0.39 -1.14 -1.14 0 -12.7c0,-188.56 35.09,-369.67 98.87,-535.86 66.01,-171.99 162.9,-328.11 283.56,-460.01 98.98,-108.2 213.86,-199.91 340.83,-270.68 123.81,-69.01 259.03,-118.18 402.13,-143.4l35.93 -6.33 0 563.4 -21.92 6.58c-66.51,19.97 -129.38,49.15 -187.39,86.13 -59.49,37.92 -114.04,84.05 -162.37,136.88 -74,80.9 -133.53,177.76 -174.23,285.47 -39.28,103.98 -60.9,218.14 -60.9,337.84l0 30.66 -0.87 0c1.47,218.36 -7.23,406.21 -25.14,572.24 -18.55,171.91 -47.01,320.98 -84.31,456.69 -38.24,139.18 -84.63,261.56 -138.31,377.78 -53.44,115.72 -114.35,225.78 -181.76,340.53 -80.98,137.82 -164.7,252.01 -245.73,350.12 -80.61,97.61 -158.95,179.73 -229.15,253.32l-0.51 0.63 -0.05 -0.05c-98.02,102.76 -173.74,182.18 -182.55,222.4 -6.31,28.76 -8.4,53.16 -7.27,74.11 1.08,19.98 5.1,36.93 11.17,51.67 8.28,20.13 21,40.62 36.26,61.21 16.12,21.74 34.76,43.28 54.06,64.57 15,16.56 34.63,33.04 58.25,49.64 23.95,16.84 52.18,33.77 83.98,51.02 39.44,21.39 81.72,41.78 126.61,62 45.65,20.56 94.1,41.05 144.99,62.26 59.48,24.78 153.71,54.72 273.37,84.62 104.7,26.16 228.2,52.15 364.14,74.48 116.55,19.14 242.61,35.42 374.32,46.58 117.44,9.95 239.02,15.74 361.87,15.74 122.85,0 244.43,-5.79 361.88,-15.74 131.72,-11.16 257.77,-27.44 374.32,-46.58 135.93,-22.33 259.43,-48.32 364.14,-74.48 119.66,-29.9 213.89,-59.84 273.37,-84.62 50.89,-21.21 99.34,-41.7 144.98,-62.26 44.89,-20.22 87.18,-40.61 126.61,-62 31.8,-17.25 60.02,-34.18 83.97,-51.02 23.62,-16.61 43.25,-33.08 58.25,-49.64 19.29,-21.29 37.94,-42.83 54.05,-64.58 15.27,-20.6 27.99,-41.08 36.27,-61.21 3.3,-8.03 6.04,-17.02 8.06,-27.17 2.08,-10.38 3.28,-21.33 3.43,-32.94l0.39 -30.3 553.85 0 -0.16 30.78zm-74.72 129.41c6.62,-31.71 11,-64.62 12.77,-98.87l-433.16 0c-0.63,4.75 -1.39,9.34 -2.27,13.77l0 0.12c-2.69,13.51 -6.66,26.29 -11.65,38.42 -10.41,25.3 -25.66,50.07 -43.69,74.39 -17.18,23.18 -37.17,46.26 -57.88,69.13 -18.51,20.43 -41.46,39.87 -68.31,58.74 -26.51,18.64 -56.67,36.8 -89.96,54.85 -40.09,21.75 -83.83,42.82 -130.69,63.92 -46.09,20.76 -95.12,41.5 -146.66,62.97 -62.11,25.88 -159.4,56.86 -282,87.5 -105.65,26.4 -230.77,52.71 -369.17,75.44 -119.02,19.55 -246.81,36.09 -379.11,47.3 -119.22,10.1 -242.51,15.98 -366.91,15.98 -124.4,0 -247.68,-5.88 -366.9,-15.98 -132.3,-11.21 -260.09,-27.75 -379.11,-47.3 -138.39,-22.73 -263.52,-49.04 -369.17,-75.44 -122.6,-30.64 -219.89,-61.62 -282,-87.5 -51.54,-21.47 -100.57,-42.21 -146.66,-62.97 -46.85,-21.1 -90.59,-42.17 -130.68,-63.92 -33.29,-18.06 -63.45,-36.21 -89.97,-54.85 -26.85,-18.88 -49.81,-38.32 -68.31,-58.75 -20.72,-22.87 -40.71,-45.95 -57.89,-69.12 -18.03,-24.32 -33.28,-49.08 -43.69,-74.39 -8.57,-20.85 -14.24,-44.44 -15.72,-71.79 -1.43,-26.37 1,-56.12 8.46,-90.16 12.51,-57.05 93.66,-142.12 198.65,-252.18l0.51 -0.63 0.05 0.05c69.01,-72.34 145.99,-153.07 225.75,-249.65 79.56,-96.32 161.5,-208 240.22,-341.97 66.21,-112.7 126.11,-220.96 178.89,-335.26 52.55,-113.79 97.84,-233.13 134.95,-368.2 36.35,-132.29 64.16,-278.19 82.39,-447.11 18.29,-169.56 26.89,-361.79 24.74,-586.06 0,-13.68 -0.11,-27.36 -0.16,-41.04l1.41 0c3.4,-115.89 26,-226.76 64.52,-328.74 43.38,-114.83 107.09,-218.37 186.44,-305.11 51.97,-56.81 110.63,-106.41 174.58,-147.18 56.57,-36.06 117.15,-65.22 180.81,-86.38l0 -444.63c-123.17,25.56 -239.69,69.73 -347.03,129.56 -121.31,67.62 -231.03,155.19 -325.51,258.47 -115.28,126.03 -208,275.55 -271.34,440.61 -59.72,155.63 -93.2,325 -94.73,501.43l0.73 0.73 0.11 25.66c1.94,202.79 -5.31,374.56 -20.84,523.98 -15.61,150.14 -39.62,278.18 -71.12,392.78 -30.67,111.64 -69.33,212.31 -114.86,309.79 -45.34,97.09 -97.39,190.82 -155.11,289.08 -65.59,111.63 -136.7,207.62 -206.97,291.98 -70.47,84.61 -139.04,156.5 -200.49,220.9 -77.27,80.99 -145.76,152.79 -198.83,225.6 -52.1,71.48 -90.39,145.24 -109.51,232.42 -18.15,82.77 -22.51,157.71 -16.27,226.45 6.23,68.64 23,131.55 47.14,190.22 22.19,53.96 49.86,101.61 80.61,145.32 31.3,44.51 65.47,84.61 100.28,123.03 37.51,41.41 78.94,78.26 124.08,111.88 45.06,33.56 94.24,64.07 147.21,92.81 46.31,25.12 95.89,49.03 148.49,72.73 53.36,24.04 109.93,47.97 169.35,72.73 71.44,29.77 179.33,64.81 312.7,99.24 116.92,30.18 253.86,59.98 403.66,85.49l26.09 4.44 -0.58 26.34c-2.25,102.14 3.72,188.5 33.37,273.16 29.64,84.65 83.49,169.17 177.21,268.31 40.05,42.37 83.18,79.21 128.71,110.69 46.99,32.5 96.72,59.41 148.43,80.95 52.48,21.86 106.65,38.1 161.74,48.95 56.33,11.09 113.67,16.51 171.17,16.51 57.51,0 114.85,-5.42 171.19,-16.51 55.08,-10.84 109.25,-27.08 161.73,-48.95 51.7,-21.54 101.44,-48.45 148.43,-80.95 45.53,-31.49 88.66,-68.32 128.71,-110.69 93.72,-99.14 147.57,-183.66 177.21,-268.31 29.64,-84.66 35.62,-171.02 33.37,-273.16l-0.58 -26.34 26.09 -4.44c149.8,-25.51 286.74,-55.31 403.66,-85.49 133.37,-34.43 241.26,-69.48 312.7,-99.24 59.42,-24.76 115.99,-48.68 169.35,-72.73 52.6,-23.7 102.19,-47.61 148.49,-72.73 52.97,-28.74 102.15,-59.25 147.21,-92.81 45.13,-33.62 86.57,-70.47 124.08,-111.88 34.8,-38.42 68.97,-78.53 100.27,-123.03 30.76,-43.72 58.42,-91.36 80.61,-145.33 15.27,-37.12 27.6,-76.02 36.18,-117.08zm-2052.69 1045.62c-45.97,3.15 -92.96,5.71 -140.85,7.61 -59.73,2.37 -118.28,3.63 -175.15,3.63 -56.87,0 -115.41,-1.26 -175.14,-3.63 -47.9,-1.9 -94.88,-4.46 -140.85,-7.61 3.58,13.32 8.21,26.14 14.13,38.67 11.28,23.91 27.45,47.14 50.15,71.14 15.42,16.32 32.1,30.53 49.76,42.7 18.16,12.52 37.56,22.97 57.85,31.42 21.62,9 44.44,15.69 68.08,20.13 24.26,4.56 49.75,6.8 76.03,6.8 26.29,0 51.78,-2.23 76.04,-6.8 23.64,-4.45 46.46,-11.13 68.08,-20.13 20.3,-8.45 39.69,-18.91 57.85,-31.43 17.66,-12.17 34.33,-26.38 49.75,-42.69 22.7,-24 38.86,-47.23 50.15,-71.14 5.91,-12.53 10.54,-25.35 14.13,-38.67zm-143.25 -53.47c58.81,-2.33 118.49,-5.89 178.58,-10.51l37.46 -2.88 -4.89 37.38c-4.4,33.62 -12.63,64.44 -26.7,94.26 -14.04,29.74 -33.69,58.14 -60.93,86.95 -18.38,19.45 -38.35,36.45 -59.58,51.07 -21.98,15.15 -45.14,27.67 -69.11,37.66 -25.45,10.6 -52.37,18.48 -80.3,23.73 -28.53,5.37 -57.78,7.99 -87.3,7.99 -29.51,0 -58.77,-2.63 -87.29,-7.99 -27.93,-5.25 -54.85,-13.13 -80.3,-23.73 -23.97,-9.98 -47.12,-22.5 -69.1,-37.65 -21.22,-14.63 -41.2,-31.63 -59.58,-51.08 -27.24,-28.81 -46.89,-57.21 -60.92,-86.95 -14.08,-29.82 -22.31,-60.64 -26.7,-94.26l-4.89 -37.38 37.47 2.88c60.09,4.62 119.78,8.18 178.58,10.51 55.81,2.21 113.43,3.39 172.75,3.39 59.33,0 116.94,-1.18 172.75,-3.39z"/>
  <path class="fil0" d="M2719.44 41.98c993.06,0 1532.65,617.47 1822.92,1393.23 270.89,723.94 314.07,1579.73 314.07,2158.22l-493.19 0c0,-541.67 -38.69,-1338.3 -281.33,-1986.76 -223.24,-596.61 -628.87,-1071.5 -1362.48,-1071.5l0 -493.19z"/>
  <path class="fil1" d="M2719.44 11.32c504.38,0 894.05,157.19 1194.77,413.13 299.72,255.09 509.97,607.75 656.78,1000.1 136.49,364.76 215.54,762.05 260.42,1140.72 44.85,378.37 55.69,738.1 55.69,1028.16l0 30.66 -554.51 0 0 -30.66c0,-270.1 -9.63,-603.61 -49.44,-949.86 -39.77,-345.92 -109.58,-704.8 -229.86,-1026.24 -109.97,-293.89 -264.51,-557.5 -481.35,-747.15 -215.58,-188.55 -493.77,-304.35 -852.5,-304.35l-30.66 0 0 -554.51 30.66 0zm1155.24 459.6c-283.81,-241.55 -650.78,-391.84 -1124.58,-398.05l0 431.93c360.15,6.46 641.86,126.78 862.08,319.4 225.19,196.95 385.08,469.1 498.35,771.82 122.36,327.02 193.22,690.69 233.45,1040.61 38.69,336.55 49.14,660.18 49.87,926.15l431.87 0c-0.76,-282.91 -12.27,-628.36 -55.17,-990.32 -44.43,-374.82 -122.43,-767.42 -256.82,-1126.58 -143.46,-383.4 -348.15,-727.37 -639.05,-974.95z"/>
 </g>
</svg>
