<?xml version="1.0" encoding="UTF-8"?>
<!DOCTYPE svg PUBLIC "-//W3C//DTD SVG 1.1//EN" "http://www.w3.org/Graphics/SVG/1.1/DTD/svg11.dtd">
<!-- Creator: CorelDRAW 2020 (64-Bit) -->
<svg xmlns="http://www.w3.org/2000/svg" xml:space="preserve" width="196.797mm" height="242.705mm" version="1.1" style="shape-rendering:geometricPrecision; text-rendering:geometricPrecision; image-rendering:optimizeQuality; fill-rule:evenodd; clip-rule:evenodd"
viewBox="0 0 19426.85 23958.74"
 xmlns:xlink="http://www.w3.org/1999/xlink"
 xmlns:xodm="http://www.corel.com/coreldraw/odm/2003">
 <defs>
  <style type="text/css">
   <![CDATA[
    .fil1 {fill:black;fill-rule:nonzero}
    .fil0 {fill:white;fill-rule:nonzero}
   ]]>
  </style>
 </defs>
 <g id="Слой_x0020_1">
  <metadata id="CorelCorpID_0Corel-Layer"/>
  <path class="fil0" d="M19304.56 16244.9c-1.97,379.54 -79.9,717.39 -207.07,1026.5 -184.45,448.47 -457.22,788.21 -741.41,1101.99 -310.07,342.24 -682.13,607.07 -1110.32,839.37 -370.74,201.11 -799.91,385.52 -1274.88,583.46 -538.85,224.52 -1593.56,523.87 -2874.28,741.94 18.52,838.84 -100.04,1423.69 -869.91,2238.12 -335.53,354.99 -724.55,616.31 -1143.57,790.87 -438.01,182.51 -903.47,269.72 -1370.04,269.72 -466.57,0 -932.05,-87.25 -1370.03,-269.72 -419.02,-174.56 -808.04,-435.88 -1143.57,-790.87 -769.88,-814.42 -888.44,-1399.27 -869.91,-2238.12 -1280.71,-218.06 -2335.44,-517.42 -2874.28,-741.94 -475,-197.93 -904.11,-382.31 -1274.88,-583.46 -428.2,-232.3 -800.29,-497.13 -1110.32,-839.37 -284.26,-313.78 -556.97,-653.55 -741.41,-1101.99 -200.59,-487.62 -278.82,-1046.69 -129.36,-1728.23 159.89,-729.12 637.98,-1230.3 1256.63,-1878.78 487.93,-511.48 1088.99,-1141.54 1603.01,-2016.41 455.73,-775.71 820.98,-1478.24 1060.81,-2351.06 246.68,-897.63 376.6,-2010.17 361.25,-3611.4l-0.21 -51.78 -3.83 -3.83c0,-1494.95 565.95,-2869.03 1487.82,-3876.82 758.6,-829.27 1757.93,-1409.33 2884.8,-1607.95l0 2003.94c-554.83,166.56 -1050.3,489.66 -1445.09,921.21 -599.17,655.03 -967.04,1561.52 -967.04,2559.61l-3.8 0 0.16 40.3c17.26,1794.82 -137.36,3074.46 -430.14,4139.83 -299.56,1090.16 -728.75,1921.69 -1259.93,2825.84 -634.8,1080.41 -1317.12,1795.66 -1871.06,2376.35 -404.07,423.59 -716.4,750.98 -758.82,944.47 -54.74,249.67 -36.03,430.35 22.16,571.88 74.28,180.64 222.36,359.68 381.43,535.25 133.19,147.06 338.5,285.47 597.26,425.85 316.15,171.51 683.85,329.49 1091.05,499.17 451.5,188.14 1388.1,447.36 2561.31,640.08 887.94,145.84 1906.31,249.64 2945.99,249.64 1039.69,0 2058.07,-103.8 2946,-249.64 1173.21,-192.72 2109.81,-451.94 2561.31,-640.08 407.16,-169.68 774.91,-327.67 1091.05,-499.17 258.75,-140.38 464.04,-278.82 597.26,-425.85 159.03,-175.58 307.13,-354.65 381.42,-535.25 32.97,-80.19 53.26,-172.93 54.71,-283.68l1959.73 0zm-8185.84 4538.45c-461.82,35.48 -933.54,55.73 -1405.64,55.73 -472.09,0 -943.82,-20.26 -1405.63,-55.73 31.71,242.37 117.94,442.8 316.43,652.75 136.61,144.52 296.48,251.56 469.65,323.68 189.33,78.85 400.25,116.58 619.55,116.58 219.31,0 430.23,-37.73 619.55,-116.58 173.21,-72.15 333.08,-179.19 469.66,-323.68 198.49,-209.95 284.72,-410.38 316.43,-652.75z"/>
  <path class="fil1" d="M19425.97 16245.37c-1.03,198.86 -21.85,386.26 -58.96,563.95 -37.16,177.87 -90.72,346.76 -157.15,508.26 -96.22,233.97 -214.87,438.69 -346.16,625.31 -129.08,183.51 -271.77,350.87 -417.63,511.91 -160.94,177.64 -337.32,334.71 -528.48,477.1 -191.48,142.62 -396.15,269.94 -613.74,387.98 -186.65,101.25 -389.54,198.99 -606.45,296.73 -213.87,96.38 -441.08,192.47 -679.85,291.96 -291.24,121.35 -731.57,264.35 -1276.34,404.98 -446.87,115.35 -962.57,228.78 -1521.61,326.78 3,388.33 -28.82,726.93 -147.55,1066.03 -129.28,369.22 -359.46,732.9 -756.79,1153.22 -170.89,180.79 -355.44,338.32 -550.7,473.35 -201.84,139.59 -414.5,254.8 -634.76,346.56 -224.25,93.43 -455.22,162.73 -689.57,208.86 -240.15,47.27 -483.71,70.38 -727.14,70.38 -243.4,0 -486.95,-23.12 -727.08,-70.38 -234.38,-46.14 -465.36,-115.44 -689.62,-208.86 -220.26,-91.76 -432.92,-206.97 -634.76,-346.56 -195.26,-135.03 -379.82,-292.56 -550.7,-473.35 -397.34,-420.33 -627.52,-784.01 -756.8,-1153.22 -118.73,-339.1 -150.55,-677.7 -147.54,-1066.03 -559.05,-97.99 -1074.74,-211.43 -1521.63,-326.78 -544.76,-140.62 -985.09,-283.63 -1276.32,-404.98 -238.78,-99.5 -466,-195.58 -679.85,-291.95 -216.9,-97.73 -419.78,-195.47 -606.45,-296.74 -217.6,-118.04 -422.27,-245.36 -613.75,-387.98 -191.17,-142.39 -367.56,-299.46 -528.47,-477.1 -145.87,-161.02 -288.57,-328.4 -417.66,-511.92 -131.28,-186.62 -249.91,-391.37 -346.13,-625.3 -104.64,-254.36 -177.4,-527.67 -204.53,-826.62 -27.1,-298.54 -8.82,-620.97 68.5,-973.49 83.88,-382.54 250.67,-704.51 477.24,-1015.35 222.71,-305.55 498.85,-595.02 810.34,-921.53l2 -2.48 0.19 0.19c483.43,-506.78 1078.41,-1130.95 1584.16,-1991.74 226.25,-385.1 429.86,-751.67 606.13,-1129.12 175.53,-375.85 324.41,-763.41 442.29,-1192.41 121.48,-442.07 214.34,-938.18 275.07,-1522.33 61.04,-587.01 89.51,-1261.11 81.89,-2056.22l0 -1.57 -4.51 -4.51 0 -50.47c0,-749.54 139.48,-1469.49 393.01,-2130.11 262.39,-683.69 647.55,-1304.27 1127.19,-1828.6 393.47,-430.12 850.14,-794.68 1354.86,-1076 492.18,-274.33 1029.69,-469.79 1598.5,-570.03l142.83 -25.17 0 2239.59 -87.13 26.15c-264.39,79.37 -514.3,195.37 -744.91,342.36 -236.47,150.75 -453.34,334.11 -645.43,544.1 -294.16,321.59 -530.81,706.63 -692.57,1134.77 -156.16,413.35 -242.09,867.12 -242.09,1342.94l0 121.88 -3.45 0c5.85,867.99 -28.76,1614.75 -99.95,2274.73 -73.73,683.35 -186.9,1275.93 -335.15,1815.41 -152.02,553.24 -336.41,1039.72 -549.79,1501.73 -212.44,459.99 -454.55,897.51 -722.53,1353.64 -642.13,1092.89 -1329.3,1813.34 -1887.26,2398.23l-2.34 2.84 -0.22 -0.16c-389.71,408.52 -690.73,724.29 -725.78,884.18 -25.07,114.35 -33.41,211.31 -28.89,294.6 4.31,79.42 20.28,146.78 44.38,205.4 32.9,80.03 83.47,161.47 144.16,243.33 64.07,86.44 138.19,172.03 214.89,256.69 59.62,65.84 137.65,131.32 231.54,197.33 95.21,66.94 207.4,134.23 333.82,202.8 156.76,85.04 324.85,166.09 503.28,246.46 181.46,81.74 374.04,163.19 576.35,247.48 236.43,98.52 611.01,217.51 1086.68,336.38 416.21,104.01 907.14,207.32 1447.48,296.08 463.32,76.1 964.39,140.8 1487.99,185.16 466.84,39.56 950.14,62.58 1438.49,62.58 488.36,0 971.66,-23.02 1438.5,-62.58 523.6,-44.36 1024.67,-109.06 1487.99,-185.16 540.35,-88.76 1031.27,-192.07 1447.48,-296.08 475.67,-118.87 850.25,-237.86 1086.68,-336.38 202.29,-84.29 394.87,-165.74 576.33,-247.48 178.44,-80.37 346.54,-161.42 503.3,-246.46 126.4,-68.57 238.59,-135.87 333.8,-202.81 93.91,-66.02 171.93,-131.51 231.56,-197.32 76.67,-84.65 150.8,-170.24 214.87,-256.7 60.7,-81.87 111.27,-163.31 144.17,-243.32 13.24,-32.2 24.12,-67.81 32.02,-107.52l0 -0.48c8.25,-41.44 13.04,-84.98 13.63,-130.93l1.56 -120.45 2201.62 0 -0.63 122.36zm-297.02 514.44c26.33,-126.07 43.74,-256.87 50.75,-393.03l-1721.8 0c-2.51,19.07 -5.55,37.47 -9.09,55.23 -10.91,54.17 -26.66,104.92 -46.32,152.74 -41.36,100.58 -102.01,199.03 -173.69,295.7 -68.29,92.13 -147.76,183.89 -230.1,274.78 -73.56,81.19 -164.83,158.48 -271.56,233.51 -105.4,74.11 -225.26,146.26 -357.61,218.05 -159.37,86.45 -333.25,170.2 -519.49,254.08 -183.21,82.53 -378.12,164.95 -582.98,250.32 -246.88,102.87 -633.63,226.03 -1120.97,347.81 -419.96,104.94 -917.35,209.52 -1467.48,299.89 -473.11,77.71 -981.08,143.45 -1507.02,188.02 -473.91,40.16 -964,63.52 -1458.5,63.52 -494.51,0 -984.58,-23.37 -1458.49,-63.52 -525.94,-44.57 -1033.91,-110.31 -1507.02,-188.02 -550.13,-90.36 -1047.53,-194.94 -1467.48,-299.89 -487.34,-121.79 -874.1,-244.94 -1120.97,-347.81 -204.87,-85.36 -399.79,-167.8 -583,-250.32 -186.24,-83.89 -360.1,-167.63 -519.47,-254.08 -132.35,-71.79 -252.22,-143.94 -357.63,-218.04 -106.74,-75.04 -197.98,-152.31 -271.54,-233.52 -82.36,-90.91 -161.83,-182.65 -230.12,-274.77 -71.67,-96.67 -132.32,-195.1 -173.68,-295.71 -34.09,-82.88 -56.58,-176.66 -62.49,-285.38 -5.69,-104.83 3.99,-223.09 33.65,-358.39 49.68,-226.67 372.03,-564.65 789.13,-1001.89l2.54 -3.05 0.22 0.16c549.45,-575.98 1225.8,-1285.5 1852.28,-2351.75 263.2,-447.99 501.3,-878.36 711.12,-1332.69 208.9,-452.32 388.91,-926.74 536.44,-1463.62 144.51,-525.89 255.07,-1105.84 327.53,-1777.32 72.71,-674.04 106.9,-1438.18 98.33,-2329.66 0,-54.36 -0.42,-108.76 -0.63,-163.13l5.6 0c13.51,-460.7 103.34,-901.38 256.48,-1306.77 172.46,-456.46 425.71,-868.03 741.14,-1212.86 206.57,-225.81 439.76,-422.98 693.98,-585.05 224.85,-143.32 465.7,-259.26 718.73,-343.35l0 -1767.47c-489.63,101.61 -952.8,277.18 -1379.48,515 -482.23,268.78 -918.36,616.88 -1293.93,1027.45 -458.26,500.96 -826.82,1095.34 -1078.62,1751.47 -237.41,618.65 -370.5,1291.92 -376.58,1993.22l2.92 2.92 0.4 101.97c7.72,806.1 -21.09,1488.91 -82.84,2082.88 -62.04,596.81 -157.51,1105.81 -282.69,1561.36 -121.94,443.78 -275.6,843.94 -456.59,1231.47 -180.23,385.93 -387.12,758.53 -616.6,1149.12 -521.49,887.59 -1127.58,1522.94 -1619.57,2038.69l-2 2.48 -0.19 -0.19c-306.28,321.05 -577.81,605.85 -788.26,894.58 -207.1,284.14 -359.33,577.37 -435.33,923.92 -72.15,329.01 -89.49,626.9 -64.69,900.19 24.76,272.85 91.43,522.94 187.37,756.16 88.21,214.49 198.17,403.89 320.42,577.68 124.43,176.91 260.25,336.34 398.62,489.08 149.09,164.59 313.8,311.07 493.23,444.72 179.1,133.4 374.6,254.69 585.19,368.93 184.06,99.86 381.17,194.91 590.26,289.12 212.12,95.58 436.99,190.69 673.2,289.11 283.97,118.32 712.84,257.65 1242.99,394.5 464.76,119.96 1009.12,238.43 1604.62,339.82l103.73 17.65 -2.32 104.71c-8.96,406.01 14.81,749.32 132.63,1085.85 117.83,336.5 331.89,672.49 704.42,1066.57 159.21,168.43 330.67,314.86 511.65,440.02 186.8,129.19 384.5,236.19 590.02,321.8 208.6,86.9 423.95,151.46 642.94,194.57 223.9,44.08 451.84,65.63 680.43,65.63 228.62,0 456.56,-21.54 680.48,-65.63 218.96,-43.1 434.3,-107.66 642.89,-194.57 205.53,-85.62 403.22,-192.61 590.02,-321.8 180.98,-125.16 352.44,-271.6 511.65,-440.02 372.53,-394.08 586.59,-730.07 704.41,-1066.57 117.84,-336.53 141.61,-679.84 132.64,-1085.85l-2.32 -104.71 103.73 -17.65c595.49,-101.39 1139.85,-219.86 1604.6,-339.82 530.16,-136.85 959.04,-276.18 1243.01,-394.5 236.19,-98.42 461.07,-193.52 673.2,-289.12 209.09,-94.21 406.2,-189.26 590.26,-289.11 210.57,-114.23 406.07,-235.52 585.18,-368.93 179.42,-133.64 344.13,-280.13 493.24,-444.72 138.34,-152.73 274.15,-312.16 398.59,-489.07 122.25,-173.79 232.24,-363.18 320.45,-577.69 60.71,-147.57 109.71,-302.2 143.81,-465.41zm-8159.72 4156.47c-182.76,12.52 -369.51,22.7 -559.92,30.26 -237.44,9.42 -470.16,14.43 -696.22,14.43 -226.05,0 -458.78,-5.01 -696.22,-14.43 -190.4,-7.55 -377.16,-17.74 -559.91,-30.26 14.24,52.93 32.65,103.91 56.15,153.71 44.87,95.05 109.13,187.37 199.35,282.79 61.31,64.86 127.61,121.35 197.8,169.72 72.2,49.75 149.29,91.32 229.96,124.91 85.94,35.79 176.67,62.36 270.64,80.04 96.43,18.14 197.75,27.02 302.25,27.02 104.51,0 205.83,-8.87 302.26,-27.02 93.97,-17.68 184.69,-44.24 270.63,-80.04 80.68,-33.6 157.78,-75.17 229.99,-124.93 70.19,-48.37 136.48,-104.86 197.78,-169.7 90.22,-95.42 154.47,-187.74 199.34,-282.79 23.5,-49.8 41.91,-100.78 56.16,-153.71zm-569.44 -212.56c233.76,-9.26 471.03,-23.43 709.89,-41.78l148.92 -11.45 -19.43 148.58c-17.48,133.65 -50.2,256.16 -106.15,374.71 -55.79,118.21 -133.91,231.12 -242.18,345.63 -73.08,77.3 -152.47,144.88 -236.83,203.03 -87.38,60.22 -179.44,110.01 -274.73,149.69 -101.16,42.13 -208.16,73.44 -319.2,94.33 -113.4,21.33 -229.68,31.78 -347.01,31.78 -117.32,0 -233.6,-10.44 -347,-31.78 -111.04,-20.89 -218.03,-52.19 -319.21,-94.33 -95.27,-39.67 -187.32,-89.46 -274.7,-149.67 -84.36,-58.14 -163.77,-125.73 -236.85,-203.05 -108.27,-114.51 -186.39,-227.42 -242.19,-345.63 -55.94,-118.56 -88.66,-241.06 -106.14,-374.71l-19.43 -148.58 148.92 11.45c238.85,18.35 476.12,32.52 709.88,41.78 221.84,8.8 450.88,13.48 686.7,13.48 235.84,0 464.86,-4.69 686.7,-13.48z"/>
  <polygon class="fil0" points="11842.86,10047.59 11842.86,15925.6 9882.33,15925.6 9882.33,10047.59 "/>
  <path class="fil1" d="M11964.74 10047.59l0 5999.89 -2204.3 0 0 -6121.78 2204.3 0 0 121.88zm-243.77 5756.13l0 -5634.24 -1716.76 0 0 5634.24 1716.76 0z"/>
  <polygon class="fil0" points="9882.33,8740.57 9882.33,6780.04 11842.86,6780.04 11842.86,8740.57 "/>
  <path class="fil1" d="M9760.45 8740.57l0 -2082.41 2204.3 0 0 2204.3 -2204.3 0 0 -121.88zm243.77 -1838.64l0 1716.76 1716.76 0 0 -1716.76 -1716.76 0z"/>
  <path class="fil0" d="M10810.14 166.89c3947.52,0 6092.46,2454.51 7246.34,5538.27 1076.83,2877.74 1248.48,6279.62 1248.48,8579.21l-1960.5 0c0,-2153.21 -153.79,-5319.93 -1118.32,-7897.63 -887.41,-2371.62 -2499.84,-4259.35 -5416.01,-4259.35l0 -1960.5z"/>
  <path class="fil1" d="M10810.14 45c2004.96,0 3553.95,624.87 4749.35,1642.24 1191.44,1014.01 2027.19,2415.87 2610.79,3975.54 542.57,1449.98 856.78,3029.23 1035.2,4534.5 178.28,1504.07 221.38,2934.04 221.38,4087.09l0 121.88 -2204.27 0 0 -121.88c0,-1073.7 -38.27,-2399.43 -196.51,-3775.83 -158.09,-1375.08 -435.6,-2801.68 -913.71,-4079.42 -437.13,-1168.26 -1051.48,-2216.15 -1913.42,-2970 -856.96,-749.5 -1962.82,-1209.85 -3388.8,-1209.85l-121.88 0 0 -2204.27 121.88 0zm4592.23 1826.98c-1128.19,-960.19 -2586.93,-1557.61 -4470.35,-1582.31l0 1716.99c1431.64,25.68 2551.47,503.98 3426.9,1269.64 895.16,782.9 1530.76,1864.72 1981.02,3068.07 486.41,1299.94 768.08,2745.58 928,4136.56 153.81,1337.83 195.35,2624.3 198.23,3681.56l1716.74 0c-3.01,-1124.6 -48.78,-2497.83 -219.32,-3936.63 -176.6,-1489.96 -486.66,-3050.58 -1020.91,-4478.31 -570.28,-1524.08 -1383.95,-2891.38 -2540.32,-3875.56z"/>
 </g>
</svg>
