<?xml version="1.0" encoding="UTF-8"?>
<!DOCTYPE svg PUBLIC "-//W3C//DTD SVG 1.1//EN" "http://www.w3.org/Graphics/SVG/1.1/DTD/svg11.dtd">
<!-- Creator: CorelDRAW 2020 (64-Bit) -->
<svg xmlns="http://www.w3.org/2000/svg" xml:space="preserve" width="196.797mm" height="242.705mm" version="1.1" style="shape-rendering:geometricPrecision; text-rendering:geometricPrecision; image-rendering:optimizeQuality; fill-rule:evenodd; clip-rule:evenodd"
viewBox="0 0 13290.75 16391.21"
 xmlns:xlink="http://www.w3.org/1999/xlink"
 xmlns:xodm="http://www.corel.com/coreldraw/odm/2003">
 <defs>
  <style type="text/css">
   <![CDATA[
    .fil1 {fill:black;fill-rule:nonzero}
    .fil0 {fill:white;fill-rule:nonzero}
   ]]>
  </style>
 </defs>
 <g id="Слой_x0020_1">
  <metadata id="CorelCorpID_0Corel-Layer"/>
  <path class="fil0" d="M13207.08 11113.83c-1.35,259.66 -54.66,490.8 -141.66,702.27 -126.18,306.82 -312.8,539.25 -507.23,753.92 -212.13,234.14 -466.68,415.32 -759.62,574.25 -253.64,137.59 -547.25,263.75 -872.2,399.17 -368.65,153.6 -1090.23,358.4 -1966.42,507.59 12.67,573.89 -68.43,974.01 -595.14,1531.19 -229.55,242.86 -495.7,421.64 -782.36,541.07 -299.66,124.86 -618.1,184.53 -937.3,184.53 -319.19,0 -637.66,-59.69 -937.3,-184.53 -286.67,-119.42 -552.81,-298.2 -782.36,-541.07 -526.71,-557.18 -607.81,-957.3 -595.14,-1531.19 -876.19,-149.19 -1597.77,-353.99 -1966.42,-507.59 -324.97,-135.42 -618.54,-261.56 -872.2,-399.17 -292.94,-158.92 -547.51,-340.11 -759.62,-574.25 -194.48,-214.67 -381.05,-447.12 -507.23,-753.92 -137.23,-333.61 -190.75,-716.09 -88.5,-1182.36 109.39,-498.82 436.47,-841.7 859.71,-1285.36 333.82,-349.93 745.02,-780.97 1096.69,-1379.51 311.78,-530.69 561.67,-1011.33 725.74,-1608.46 168.76,-614.11 257.65,-1375.25 247.15,-2470.71l-0.15 -35.42 -2.62 -2.62c0,-1022.76 387.19,-1962.82 1017.88,-2652.3 518.99,-567.34 1202.68,-964.18 1973.62,-1100.07l0 1370.98c-379.58,113.95 -718.56,335 -988.65,630.24 -409.92,448.13 -661.59,1068.3 -661.59,1751.14l-2.6 0 0.11 27.57c11.81,1227.92 -93.98,2103.37 -294.27,2832.24 -204.95,745.83 -498.57,1314.71 -861.98,1933.28 -434.29,739.16 -901.09,1228.49 -1280.07,1625.76 -276.45,289.79 -490.13,513.78 -519.15,646.15 -37.45,170.81 -24.65,294.42 15.17,391.25 50.82,123.58 152.12,246.07 260.94,366.19 91.12,100.61 231.58,195.3 408.61,291.34 216.29,117.34 467.86,225.42 746.44,341.51 308.89,128.72 949.66,306.06 1752.3,437.91 607.47,99.78 1304.19,170.79 2015.48,170.79 711.3,0 1408.01,-71.01 2015.49,-170.79 802.65,-131.85 1443.41,-309.19 1752.3,-437.91 278.56,-116.09 530.15,-224.17 746.44,-341.51 177.03,-96.04 317.47,-190.75 408.61,-291.34 108.8,-120.12 210.12,-242.63 260.94,-366.19 22.56,-54.86 36.44,-118.31 37.43,-194.08l1340.73 0zm-5600.29 3104.95c-315.94,24.27 -638.68,38.13 -961.66,38.13 -322.97,0 -645.71,-13.86 -961.65,-38.13 21.69,165.81 80.68,302.94 216.48,446.57 93.46,98.87 202.84,172.1 321.31,221.44 129.53,53.95 273.83,79.76 423.86,79.76 150.04,0 294.34,-25.81 423.87,-79.76 118.49,-49.36 227.86,-122.59 321.31,-221.44 135.8,-143.63 194.79,-280.76 216.48,-446.57z"/>
  <path class="fil1" d="M13290.15 11114.16c-0.7,136.05 -14.95,264.26 -40.34,385.82 -25.42,121.69 -62.07,237.23 -107.52,347.72 -65.83,160.07 -147,300.13 -236.82,427.8 -88.31,125.55 -185.93,240.05 -285.72,350.22 -110.1,121.53 -230.78,228.99 -361.56,326.41 -131,97.58 -271.03,184.68 -419.89,265.43 -127.7,69.27 -266.5,136.14 -414.9,203 -146.32,65.93 -301.76,131.67 -465.12,199.74 -199.25,83.02 -500.5,180.85 -873.2,277.06 -305.73,78.92 -658.54,156.52 -1041,223.56 2.05,265.67 -19.71,497.32 -100.95,729.32 -88.44,252.6 -245.92,501.4 -517.75,788.97 -116.91,123.68 -243.18,231.46 -376.76,323.84 -138.09,95.5 -283.57,174.32 -434.27,237.1 -153.42,63.92 -311.43,111.33 -471.76,142.89 -164.3,32.34 -330.92,48.15 -497.47,48.15 -166.52,0 -333.13,-15.82 -497.43,-48.15 -160.35,-31.57 -318.38,-78.98 -471.8,-142.89 -150.69,-62.77 -296.18,-141.59 -434.27,-237.1 -133.59,-92.38 -259.85,-200.15 -376.76,-323.84 -271.84,-287.57 -429.31,-536.37 -517.75,-788.97 -81.23,-231.99 -103,-463.64 -100.95,-729.32 -382.46,-67.04 -735.27,-144.65 -1041,-223.56 -372.7,-96.21 -673.95,-194.04 -873.2,-277.06 -163.36,-68.07 -318.81,-133.81 -465.12,-199.74 -148.39,-66.86 -287.19,-133.73 -414.9,-203.01 -148.86,-80.76 -288.9,-167.87 -419.9,-265.43 -130.78,-97.41 -251.45,-204.88 -361.55,-326.41 -99.8,-110.16 -197.42,-224.66 -285.74,-350.23 -89.81,-127.68 -170.98,-267.76 -236.8,-427.8 -71.59,-174.02 -121.37,-361 -139.93,-565.53 -18.53,-204.24 -6.02,-424.83 46.86,-666.01 57.39,-261.72 171.5,-481.99 326.5,-694.64 152.37,-209.04 341.28,-407.08 554.39,-630.46 166.71,-174.75 352.76,-369.78 538.08,-592.29 185.87,-223.18 373.93,-476.97 547.21,-771.91 154.78,-263.46 294.09,-514.24 414.68,-772.48 120.08,-257.13 221.95,-522.28 302.59,-815.78 83.12,-302.44 146.64,-641.86 188.19,-1041.49 41.75,-401.6 61.23,-862.79 56.03,-1406.75l0 -1.07 -3.09 -3.09 0 -34.53c0,-512.79 95.43,-1005.34 268.87,-1457.3 179.51,-467.74 443.02,-892.31 771.16,-1251.03 269.19,-294.27 581.62,-543.67 926.92,-736.14 336.72,-187.68 704.46,-321.4 1093.6,-389.98l97.72 -17.22 0 1532.2 -59.61 17.89c-180.88,54.3 -351.85,133.66 -509.62,234.23 -161.78,103.13 -310.15,228.58 -441.57,372.24 -201.25,220.01 -363.15,483.44 -473.82,776.35 -106.83,282.79 -165.62,593.23 -165.62,918.77l0 83.39 -2.36 0c4,593.83 -19.67,1104.72 -68.38,1556.24 -50.44,467.51 -127.86,872.92 -229.28,1242 -104,378.5 -230.15,711.32 -376.13,1027.4 -145.34,314.7 -310.99,614.03 -494.32,926.08 -220.22,374.82 -447.92,685.36 -668.28,952.16 -219.23,265.45 -432.27,488.78 -623.19,688.91l-1.38 1.7 -0.13 -0.13c-266.58,279.46 -472.48,495.46 -496.47,604.83 -17.15,78.23 -22.85,144.57 -19.76,201.55 2.94,54.33 13.88,100.43 30.36,140.52 22.52,54.75 57.11,110.47 98.62,166.47 43.84,59.13 94.54,117.69 147.02,175.61 40.79,45.05 94.18,89.85 158.4,135 65.14,45.8 141.91,91.83 228.38,138.74 107.25,58.18 222.25,113.63 344.32,168.62 124.14,55.92 255.91,111.64 394.3,169.31 161.75,67.4 418.02,148.81 743.44,230.13 284.75,71.16 620.61,141.84 990.29,202.56 316.98,52.06 659.78,96.33 1018,126.68 319.39,27.06 650.03,42.81 984.13,42.81 334.1,0 664.75,-15.75 984.14,-42.81 358.21,-30.35 701.02,-74.61 1018,-126.68 369.68,-60.72 705.54,-131.4 990.29,-202.56 325.43,-81.33 581.69,-162.73 743.44,-230.13 138.39,-57.67 270.15,-113.39 394.29,-169.31 122.08,-54.99 237.08,-110.43 344.33,-168.62 86.48,-46.91 163.23,-92.96 228.37,-138.75 64.23,-45.16 117.62,-89.97 158.41,-135 52.45,-57.91 103.17,-116.47 147,-175.62 41.53,-56.01 76.13,-111.73 98.64,-166.47 8.98,-21.83 16.42,-46.29 21.92,-73.89 5.67,-28.22 8.91,-58.01 9.32,-89.57l1.07 -82.41 1506.22 0 -0.43 83.71zm-203.21 351.95c18.01,-86.25 29.92,-175.73 34.72,-268.89l-1178 0c-1.71,12.91 -3.78,25.39 -6.17,37.46l0 0.33c-7.32,36.75 -18.11,71.49 -31.69,104.5 -28.3,68.81 -69.79,136.17 -118.83,202.3 -46.72,63.03 -101.09,125.81 -157.42,187.99 -50.33,55.55 -112.76,108.42 -185.78,159.76 -72.11,50.7 -154.12,100.07 -244.66,149.18 -109.03,59.15 -227.99,116.44 -355.41,173.83 -125.34,56.46 -258.69,112.85 -398.84,171.26 -168.9,70.38 -433.5,154.64 -766.91,237.95 -287.31,71.8 -627.6,143.34 -1003.97,205.17 -323.68,53.16 -671.2,98.14 -1031.02,128.63 -324.22,27.47 -659.51,43.46 -997.82,43.46 -338.31,0 -673.59,-15.99 -997.82,-43.46 -359.81,-30.49 -707.34,-75.47 -1031.02,-128.63 -376.37,-61.82 -716.66,-133.37 -1003.97,-205.17 -333.41,-83.32 -598.01,-167.58 -766.91,-237.95 -140.16,-58.4 -273.51,-114.8 -398.85,-171.26 -127.42,-57.39 -246.37,-114.68 -355.4,-173.83 -90.54,-49.11 -172.55,-98.47 -244.67,-149.17 -73.01,-51.33 -135.45,-104.2 -185.77,-159.76 -56.34,-62.19 -110.71,-124.96 -157.43,-187.99 -49.02,-66.14 -90.51,-133.48 -118.82,-202.31 -23.32,-56.71 -38.72,-120.86 -42.75,-195.24 -3.9,-71.72 2.73,-152.62 23.02,-245.19 34.01,-155.14 254.72,-386.51 540.24,-685.82l1.38 -1.7 0.13 0.13c187.69,-196.74 397.03,-416.29 613.95,-678.94 216.36,-261.96 439.22,-565.67 653.28,-930.01 180.06,-306.49 342.96,-600.92 486.51,-911.75 142.92,-309.45 266.07,-634.02 367,-1001.33 98.87,-359.78 174.5,-756.55 224.07,-1215.94 49.75,-461.14 73.13,-983.92 67.27,-1593.82 0,-37.19 -0.29,-74.41 -0.44,-111.6l3.84 0c9.25,-315.18 70.7,-616.67 175.47,-894.01 117.98,-312.28 291.25,-593.86 507.04,-829.77 141.32,-154.49 300.86,-289.38 474.78,-400.26 153.83,-98.05 318.61,-177.37 491.71,-234.9l0 -1209.2c-334.98,69.51 -651.85,189.63 -943.76,352.33 -329.92,183.89 -628.29,422.04 -885.23,702.92 -313.51,342.74 -565.66,749.37 -737.93,1198.26 -162.42,423.24 -253.47,883.86 -257.63,1363.66l1.99 1.99 0.3 69.77c5.28,551.49 -14.43,1018.63 -56.68,1424.99 -42.45,408.31 -107.76,756.53 -193.41,1068.2 -83.42,303.61 -188.56,577.38 -312.37,842.5 -123.3,264.04 -264.85,518.94 -421.84,786.16 -178.37,303.59 -371.77,564.62 -562.85,794.06 -191.65,230.11 -378.13,425.6 -545.23,600.76 -210.13,220.26 -396.41,415.53 -540.72,613.52 -141.69,194.39 -245.83,395 -297.82,632.09 -49.35,225.09 -61.21,428.89 -44.26,615.86 16.94,186.67 62.55,357.76 128.19,517.32 60.35,146.74 135.58,276.32 219.21,395.22 85.14,121.04 178.06,230.11 272.72,334.6 102.01,112.61 214.7,212.82 337.44,304.25 122.54,91.27 256.28,174.24 400.35,252.4 125.93,68.32 260.77,133.35 403.82,197.8 145.12,65.39 298.97,130.46 460.56,197.79 194.28,80.95 487.69,176.27 850.4,269.89 317.96,82.07 690.37,163.12 1097.78,232.48l70.96 12.08 -1.58 71.63c-6.13,277.77 10.13,512.64 90.75,742.88 80.6,230.21 227.05,460.08 481.92,729.69 108.92,115.23 226.22,215.41 350.04,301.04 127.8,88.38 263.04,161.58 403.66,220.16 142.71,59.45 290.04,103.62 439.87,133.11 153.18,30.15 309.12,44.9 465.51,44.9 156.41,0 312.35,-14.74 465.55,-44.9 149.8,-29.49 297.12,-73.65 439.83,-133.11 140.61,-58.57 275.86,-131.78 403.66,-220.16 123.82,-85.63 241.12,-185.81 350.04,-301.04 254.87,-269.61 401.32,-499.48 481.92,-729.69 80.62,-230.24 96.88,-465.11 90.75,-742.88l-1.59 -71.63 70.97 -12.08c407.4,-69.37 779.82,-150.42 1097.78,-232.48 362.71,-93.62 656.12,-188.94 850.4,-269.89 161.59,-67.33 315.44,-132.4 460.56,-197.8 143.05,-64.46 277.9,-129.48 403.82,-197.79 144.06,-78.15 277.81,-161.13 400.34,-252.4 122.75,-91.43 235.44,-191.65 337.45,-304.25 94.64,-104.49 187.56,-213.56 272.69,-334.59 83.64,-118.9 158.88,-248.47 219.23,-395.22 41.53,-100.96 75.06,-206.75 98.39,-318.41zm-5582.42 2843.62c-125.03,8.56 -252.8,15.53 -383.06,20.7 -162.44,6.44 -321.66,9.87 -476.32,9.87 -154.65,0 -313.87,-3.43 -476.31,-9.87 -130.26,-5.16 -258.03,-12.14 -383.06,-20.7 9.75,36.21 22.34,71.09 38.42,105.16 30.69,65.03 74.65,128.19 136.37,193.47 41.95,44.37 87.3,83.02 135.32,116.11 49.4,34.04 102.13,62.48 157.32,85.46 58.8,24.49 120.87,42.66 185.16,54.76 65.97,12.41 135.29,18.48 206.78,18.48 71.5,0 140.81,-6.07 206.79,-18.48 64.29,-12.1 126.36,-30.27 185.16,-54.76 55.2,-22.99 107.94,-51.43 157.34,-85.48 48.02,-33.09 93.37,-71.73 135.31,-116.09 61.72,-65.28 105.69,-128.44 136.38,-193.47 16.08,-34.07 28.67,-68.95 38.41,-105.16zm-389.57 -145.42c159.92,-6.33 322.25,-16.03 485.66,-28.58l101.88 -7.83 -13.29 101.65c-11.96,91.44 -34.34,175.25 -72.61,256.36 -38.17,80.87 -91.62,158.12 -165.69,236.46 -50,52.89 -104.31,99.12 -162.02,138.89 -59.78,41.2 -122.75,75.26 -187.94,102.42 -69.22,28.83 -142.42,50.25 -218.38,64.54 -77.59,14.59 -157.13,21.74 -237.41,21.74 -80.27,0 -159.82,-7.15 -237.4,-21.74 -75.96,-14.29 -149.17,-35.71 -218.38,-64.54 -65.18,-27.14 -128.16,-61.2 -187.93,-102.4 -57.72,-39.78 -112.04,-86.02 -162.04,-138.91 -74.07,-78.35 -127.52,-155.59 -165.68,-236.46 -38.28,-81.11 -60.66,-164.92 -72.62,-256.36l-13.3 -101.65 101.89 7.83c163.42,12.55 325.74,22.25 485.66,28.58 151.77,6.02 308.47,9.23 469.8,9.23 161.35,0 318.04,-3.21 469.81,-9.23z"/>
  <path class="fil0" d="M7395.68 114.18c2700.67,0 4168.11,1679.24 4957.54,3788.97 736.7,1968.79 854.14,4296.16 854.14,5869.41l-1341.26 0c0,-1473.1 -105.21,-3639.6 -765.09,-5403.11 -607.12,-1622.53 -1710.25,-2914.01 -3705.33,-2914.01l0 -1341.26z"/>
  <path class="fil1" d="M7395.68 30.79c1371.68,0 2431.41,427.5 3249.23,1123.53 815.11,693.73 1386.89,1652.8 1786.15,2719.84 371.2,991.99 586.16,2072.43 708.22,3102.25 121.97,1029 151.46,2007.3 151.46,2796.15l0 83.39 -1508.03 0 0 -83.39c0,-734.56 -26.18,-1641.55 -134.44,-2583.21 -108.16,-940.75 -298.01,-1916.75 -625.11,-2790.91 -299.06,-799.26 -719.36,-1516.16 -1309.05,-2031.91 -586.28,-512.76 -1342.85,-827.71 -2318.43,-827.71l-83.39 0 0 -1508.03 83.39 0zm3141.74 1249.91c-771.84,-656.9 -1769.83,-1065.63 -3058.36,-1082.53l0 1174.66c979.45,17.57 1745.57,344.8 2344.49,868.61 612.42,535.62 1047.26,1275.74 1355.3,2099 332.77,889.35 525.48,1878.37 634.89,2830 105.23,915.27 133.65,1795.4 135.62,2518.72l1174.49 0c-2.06,-769.38 -33.37,-1708.87 -150.04,-2693.22 -120.82,-1019.35 -332.94,-2087.04 -698.45,-3063.81 -390.15,-1042.69 -946.82,-1978.12 -1737.94,-2651.44z"/>
  <path class="fil0" d="M9017.7 5531.51c346.55,155.48 659.37,372.72 924.41,637.76 560.94,560.92 907.94,1335.86 907.94,2191.75 0,855.88 -346.98,1630.79 -907.94,2191.75 -560.92,560.94 -1335.85,907.94 -2191.75,907.94 -855.87,0 -1630.79,-346.97 -2191.75,-907.94 -560.96,-560.96 -907.94,-1335.87 -907.94,-2191.75 0,-855.89 347,-1630.83 907.94,-2191.75 265.04,-265.04 577.86,-482.3 924.41,-637.76l0 1610.46c-304.07,316.05 -491.09,745.7 -491.09,1219.05 0,485.65 196.82,925.28 514.99,1243.45 318.16,318.16 757.8,514.98 1243.44,514.98 485.64,0 925.3,-196.82 1243.44,-514.98 318.17,-318.17 514.99,-757.8 514.99,-1243.45 0,-473.35 -187.02,-903 -491.09,-1219.05l0 -1610.46z"/>
  <path class="fil1" d="M9051.58 5455.61c177.29,79.54 345.94,174.78 504.13,283.92 160.32,110.6 309.39,234.81 445.36,370.78 293.12,293.11 529.51,643.73 691.1,1033.8 155.46,375.29 241.27,786.33 241.27,1216.91 0,430.57 -85.8,841.61 -241.27,1216.9 -161.57,390.04 -397.96,740.67 -691.1,1033.81 -293.11,293.12 -643.73,529.51 -1033.79,691.1 -375.29,155.46 -786.34,241.27 -1216.92,241.27 -430.58,0 -841.61,-85.8 -1216.9,-241.27 -390.04,-161.57 -740.68,-397.96 -1033.81,-691.1 -293.14,-293.14 -529.53,-643.76 -691.1,-1033.81 -155.47,-375.29 -241.27,-786.33 -241.27,-1216.9 0,-430.58 85.81,-841.62 241.27,-1216.91 161.59,-390.06 397.98,-740.69 691.1,-1033.8 135.98,-135.98 285.05,-260.19 445.39,-370.81 158.19,-109.14 326.83,-204.37 504.11,-283.89l117.26 -52.6 0 1772.24 -23.46 24.37c-147.59,153.41 -266.24,334.87 -347.08,535.56 -77.75,193 -120.56,404.22 -120.56,625.83 0,227.45 45.05,443.9 126.64,640.93 84.66,204.42 209.16,388.8 363.92,543.57 154.76,154.76 339.14,279.26 543.56,363.91 197.03,81.6 413.48,126.64 640.93,126.64 227.45,0 443.91,-45.04 640.94,-126.64 204.42,-84.66 388.8,-209.16 543.55,-363.91 154.76,-154.76 279.27,-339.15 363.92,-543.57 81.59,-197.02 126.64,-413.48 126.64,-640.93 0,-221.61 -42.8,-432.83 -120.56,-625.83 -80.84,-200.69 -199.49,-382.16 -347.08,-535.56l-23.46 -24.37 0 -1772.25 117.26 52.61zm409.68 420.72c-114.6,-79.07 -234.92,-150.39 -360.17,-213.24l0 1446.06c151.36,163.25 273.55,354.09 358.16,564.14 85.73,212.81 132.93,444.95 132.93,687.72 0,248.97 -49.68,486.82 -139.67,704.11 -93.57,225.95 -230.31,428.86 -399.74,598.3 -169.42,169.43 -372.34,306.16 -598.28,399.74 -217.3,89.99 -455.16,139.67 -704.12,139.67 -248.97,0 -486.81,-49.68 -704.11,-139.67 -225.95,-93.57 -428.86,-230.31 -598.29,-399.74 -169.43,-169.43 -306.17,-372.35 -399.74,-598.3 -89.99,-217.3 -139.67,-455.14 -139.67,-704.11 0,-242.77 47.2,-474.91 132.93,-687.72 84.62,-210.06 206.8,-400.89 358.16,-564.14l0 -1446.07c-125.24,62.83 -245.55,134.16 -360.14,213.22 -150.48,103.82 -291.73,221.73 -421.93,351.93 -278.46,278.45 -502.61,610.53 -655.28,979.07 -147.07,355.02 -228.24,744.67 -228.24,1153.72 0,409.04 81.16,798.69 228.24,1153.72 152.66,368.53 376.8,700.6 655.28,979.08 278.47,278.48 610.55,502.62 979.08,655.28 355.01,147.07 744.67,228.24 1153.72,228.24 409.06,0 798.71,-81.18 1153.73,-228.24 368.53,-152.66 700.61,-376.82 979.06,-655.28 278.48,-278.48 502.62,-610.55 655.28,-979.08 147.07,-355.02 228.24,-744.67 228.24,-1153.72 0,-409.05 -81.17,-798.7 -228.24,-1153.72 -152.66,-368.54 -376.82,-700.62 -655.28,-979.07 -130.2,-130.2 -271.43,-248.08 -421.9,-351.9z"/>
  <polygon class="fil0" points="7079.73,8297.66 7079.73,4073.21 8421,4073.21 8421,8297.66 "/>
  <path class="fil1" d="M6996.34 8297.66l0 -4307.84 1508.04 0 0 4391.22 -1508.04 0 0 -83.39zm166.77 -4141.07l0 4057.68 1174.5 0 0 -4057.68 -1174.5 0z"/>
 </g>
</svg>
